<svg width="34" height="32" viewBox="0 0 34 32" fill="none" xmlns="http://www.w3.org/2000/svg">
<path d="M27.8 25H31V16H19V25H27.8ZM22.2 17.8165H27.8V23.1835H22.2V17.8165Z" fill="#35344C"/>
<path d="M30.7299 13.528L17.998 2.10934C17.6109 1.76134 17.0926 1.548 16.5222 1.548C15.9205 1.548 15.3747 1.78534 14.9808 2.17067L2.6702 14.172V31H9.85061V21H13.9537V31H31.3918V14.1227L30.7299 13.528ZM29.3403 29H16.0052V19H7.79906V29H4.72174V15L16.4306 3.58534C16.4539 3.56267 16.4853 3.54934 16.5209 3.54934C16.5551 3.54934 16.5852 3.56134 16.6084 3.58267L29.3403 15.0013V29Z" fill="#35344C"/>
</svg>
